<svg id="Layer_1" data-name="Layer 1" xmlns="http://www.w3.org/2000/svg" viewBox="0 0 191.14 37.93"><defs><style>.cls-1{fill:#303e72;fill-rule:evenodd;}</style></defs><title>hr-logo</title><path class="cls-1" d="M52.15,21.47V11.11H50V21.47Zm11.07-3.94-5.53-6.42H56V21.47H58.1v-7l5.93,7h1.32V11.11H63.22v6.42Zm8.66,3.94H74V12.88h3.57V11.11H68.3v1.77h3.58v8.59ZM89,19.55H82.61V17.21h6.11V15.39H82.61V13H89V11.11H80.5V21.47H89V19.55Zm13.31,1.78L98.85,17.8a3.13,3.13,0,0,0,2.85-3.25c0-1.8-1.4-3.42-4.06-3.44-1.79,0-3.58,0-5.37,0V21.47H94.4V18h2l3.28,3.46h2.53v-.14Zm-4.62-8.4a1.68,1.68,0,1,1,0,3.32H94.4V12.93Zm14.57,4.6-5.53-6.42H105V21.47h2.12v-7l5.94,7h1.32V11.11h-2.13v6.42Zm14.7,3.94h2.32l-5.06-10.36h-2.32l-5.06,10.36h2.3l1-1.95H126l1,1.95Zm-1.8-3.77h-4.19L123,13.29l2.1,4.41Zm7.81,3.77h2.13V12.88h3.58V11.11h-9.28v1.77h3.57v8.59Zm10.79,0V11.11H141.6V21.47ZM153,10.92a5.38,5.38,0,0,0-5.8,5.45c0,2.72,1.83,5.33,5.8,5.33s5.75-2.67,5.79-5.35-1.91-5.43-5.79-5.43Zm0,1.77a3.47,3.47,0,0,1,3.69,3.69,3.7,3.7,0,0,1-7.4,0A3.49,3.49,0,0,1,153,12.69Zm16.43,4.84-5.53-6.42h-1.73V21.47h2.13v-7l5.93,7h1.32V11.11h-2.12v6.42Zm14.7,3.94h2.32L181.4,11.11h-2.32L174,21.47h2.31l1-1.95h5.9l.95,1.95Zm-1.81-3.77h-4.19l2.1-4.41,2.09,4.41Zm6.92-6.59V21.47h7.93V19.66h-5.8V11.11Z" transform="translate(-6.03 -5.33)"/><path class="cls-1" d="M63,29.48l2.1-5h.79l2.23,5h-.82L66.68,28H64.37l-.6,1.52Zm1.57-2.06h1.87L65.88,26c-.17-.42-.3-.77-.4-1.05a5.71,5.71,0,0,1-.3,1l-.6,1.47Zm5.78,2.06v-5h2.43a3.55,3.55,0,0,1,1.12.14,1.21,1.21,0,0,1,.6.47,1.29,1.29,0,0,1,.23.76,1.2,1.2,0,0,1-.38.9,2,2,0,0,1-1.16.47,1.6,1.6,0,0,1,.44.25,3.53,3.53,0,0,1,.6.66l.94,1.37h-.9l-.73-1a7.48,7.48,0,0,0-.52-.7,1.48,1.48,0,0,0-.37-.33,1,1,0,0,0-.33-.13,1.83,1.83,0,0,0-.4,0h-.84v2.23Zm.73-2.8h1.56a2.24,2.24,0,0,0,.77-.1.8.8,0,0,0,.43-.3.82.82,0,0,0,.14-.45.73.73,0,0,0-.28-.59,1.42,1.42,0,0,0-.89-.22H71.09v1.66Zm10.33,1,.72.17a2.21,2.21,0,0,1-.82,1.25,2.41,2.41,0,0,1-1.44.43,2.69,2.69,0,0,1-1.44-.34,2,2,0,0,1-.84-.95,3.24,3.24,0,0,1-.29-1.35,2.82,2.82,0,0,1,.32-1.36,2.16,2.16,0,0,1,.93-.89,3,3,0,0,1,1.33-.3,2.34,2.34,0,0,1,1.38.38,2.06,2.06,0,0,1,.78,1.08l-.71.15a1.4,1.4,0,0,0-1.46-1,2,2,0,0,0-1.06.27,1.5,1.5,0,0,0-.59.75,2.85,2.85,0,0,0-.17,1,3,3,0,0,0,.2,1.12,1.46,1.46,0,0,0,.63.71,1.9,1.9,0,0,0,.93.24,1.68,1.68,0,0,0,1-.32,1.66,1.66,0,0,0,.57-1Zm3.29,1.76v-5h.73v2.07h2.83V24.46H89v5h-.72V27.12H85.44v2.36Zm8.53,0V25.05H91.43v-.59h4.34v.59H94v4.43Zm4.93,0v-5h4v.59H98.9v1.54h3v.59h-3v1.71h3.36v.59Zm10.63-1.76.73.17a2.21,2.21,0,0,1-.82,1.25,2.41,2.41,0,0,1-1.44.43,2.69,2.69,0,0,1-1.44-.34,2.08,2.08,0,0,1-.85-.95,3.23,3.23,0,0,1-.28-1.35,2.71,2.71,0,0,1,.32-1.36,2.16,2.16,0,0,1,.93-.89,3,3,0,0,1,1.33-.3,2.34,2.34,0,0,1,1.38.38,2.06,2.06,0,0,1,.78,1.08l-.71.15a1.5,1.5,0,0,0-.56-.79,1.53,1.53,0,0,0-.91-.25,1.91,1.91,0,0,0-1.05.27,1.5,1.5,0,0,0-.59.75,2.64,2.64,0,0,0-.18,1,2.76,2.76,0,0,0,.21,1.12,1.37,1.37,0,0,0,.63.71,1.84,1.84,0,0,0,.93.24,1.53,1.53,0,0,0,1.59-1.28Zm4.66,1.76V25.05h-1.81v-.59H116v.59h-1.8v4.43Zm8.51-5h.72v2.9a3.22,3.22,0,0,1-.18,1.2,1.57,1.57,0,0,1-.67.73,2.64,2.64,0,0,1-1.28.28,2.75,2.75,0,0,1-1.26-.25,1.44,1.44,0,0,1-.7-.7,3.32,3.32,0,0,1-.2-1.26v-2.9h.72v2.9a2.74,2.74,0,0,0,.13,1,.93.93,0,0,0,.46.48,1.71,1.71,0,0,0,.79.17,1.59,1.59,0,0,0,1.13-.33,1.79,1.79,0,0,0,.34-1.28v-2.9Zm3.59,5v-5H128a3.44,3.44,0,0,1,1.11.14,1.19,1.19,0,0,1,.61.47,1.36,1.36,0,0,1,.23.76,1.2,1.2,0,0,1-.38.9,2,2,0,0,1-1.16.47,1.52,1.52,0,0,1,.43.25,3.53,3.53,0,0,1,.6.66l.95,1.37h-.91l-.72-1c-.21-.31-.39-.54-.52-.7a1.48,1.48,0,0,0-.37-.33,1.13,1.13,0,0,0-.33-.13,1.9,1.9,0,0,0-.4,0h-.84v2.23Zm.73-2.8h1.55a2.34,2.34,0,0,0,.78-.1.78.78,0,0,0,.42-.3.76.76,0,0,0-.13-1A1.44,1.44,0,0,0,128,25h-1.73v1.66Zm6.44,2.8v-5h4v.59h-3.23v1.54h3v.59h-3v1.71h3.36v.59Zm8.5-1.51v-.61h2.08V28Zm6.66,1.51v-5h1.89a5.6,5.6,0,0,1,1,.07,2,2,0,0,1,.81.36,2.14,2.14,0,0,1,.65.86,3.19,3.19,0,0,1,.21,1.19,3.49,3.49,0,0,1-.14,1,2.5,2.5,0,0,1-.38.73,1.91,1.91,0,0,1-.5.45,2.26,2.26,0,0,1-.65.26,4.63,4.63,0,0,1-.88.08Zm.73-.59h1.17a3.19,3.19,0,0,0,.85-.09,1.34,1.34,0,0,0,.49-.26,1.63,1.63,0,0,0,.4-.64,3,3,0,0,0,.14-1,2.17,2.17,0,0,0-.28-1.21,1.47,1.47,0,0,0-.68-.57,3.09,3.09,0,0,0-.94-.1h-1.15v3.84Zm6.45.59v-5h4v.59H155.8v1.54h3v.59h-3v1.71h3.36v.59Zm6.49-1.61.68-.06a1.34,1.34,0,0,0,.23.62,1.18,1.18,0,0,0,.55.4,2.24,2.24,0,0,0,.84.15,2,2,0,0,0,.73-.12,1,1,0,0,0,.47-.31.64.64,0,0,0,.16-.43.61.61,0,0,0-.15-.41,1.18,1.18,0,0,0-.49-.3c-.15-.05-.47-.13-1-.24a5.11,5.11,0,0,1-1-.31,1.52,1.52,0,0,1-.59-.47,1.09,1.09,0,0,1-.19-.63,1.19,1.19,0,0,1,.24-.71,1.37,1.37,0,0,1,.68-.5,2.71,2.71,0,0,1,1-.17,3,3,0,0,1,1.07.18,1.45,1.45,0,0,1,1,1.32l-.7.05a1,1,0,0,0-.38-.72,1.56,1.56,0,0,0-1-.24,1.62,1.62,0,0,0-1,.22.63.63,0,0,0-.3.53.57.57,0,0,0,.21.45,3.17,3.17,0,0,0,1.09.35,8.48,8.48,0,0,1,1.21.32,1.74,1.74,0,0,1,.71.51,1.21,1.21,0,0,1,.23.72,1.35,1.35,0,0,1-.25.75,1.62,1.62,0,0,1-.72.55,2.71,2.71,0,0,1-1.06.2,3.46,3.46,0,0,1-1.24-.2,1.78,1.78,0,0,1-.79-.6,1.62,1.62,0,0,1-.3-.9Zm7.11,1.61v-5h.72v5Zm6.2-2v-.59h2.32v1.86a4.06,4.06,0,0,1-1.1.59,3.6,3.6,0,0,1-1.17.2,3.36,3.36,0,0,1-1.46-.32,2.23,2.23,0,0,1-1-.92,2.7,2.7,0,0,1-.33-1.33,2.92,2.92,0,0,1,.33-1.37,2,2,0,0,1,1-.94,3.19,3.19,0,0,1,1.45-.31,3.29,3.29,0,0,1,1.07.17,1.88,1.88,0,0,1,.75.49,2.16,2.16,0,0,1,.42.83l-.66.16a1.87,1.87,0,0,0-.3-.6,1.26,1.26,0,0,0-.52-.35,2.06,2.06,0,0,0-.76-.13,2.51,2.51,0,0,0-.86.13,1.75,1.75,0,0,0-.58.37,1.64,1.64,0,0,0-.34.5,2.44,2.44,0,0,0-.21,1,2.3,2.3,0,0,0,.25,1.13,1.58,1.58,0,0,0,.73.67,2.53,2.53,0,0,0,1,.22,2.63,2.63,0,0,0,.92-.17,2.23,2.23,0,0,0,.68-.36v-.94Zm5,2v-5h.75l2.87,3.94V24.46h.7v5h-.75l-2.87-3.94v3.94Zm-109.12,9v-5h2.06a5.77,5.77,0,0,1,.84.05,1.76,1.76,0,0,1,.67.23,1.27,1.27,0,0,1,.44.48A1.51,1.51,0,0,1,74.5,36a2.27,2.27,0,0,1-1.6.44H71.49v2.05Zm.72-2.64h1.42a1.61,1.61,0,0,0,1-.24.83.83,0,0,0,.29-.67.89.89,0,0,0-.17-.54.85.85,0,0,0-.46-.3,3.48,3.48,0,0,0-.68,0h-1.4v1.79Zm6,2.64v-5H80a3.49,3.49,0,0,1,1.11.13,1.16,1.16,0,0,1,.61.48,1.36,1.36,0,0,1,.23.76,1.23,1.23,0,0,1-.38.9,2,2,0,0,1-1.16.46,2.36,2.36,0,0,1,.44.25,3.25,3.25,0,0,1,.59.67l1,1.37h-.9l-.73-1.05a8.62,8.62,0,0,0-.52-.69,1.48,1.48,0,0,0-.37-.33,1.06,1.06,0,0,0-.33-.14l-.4,0h-.84v2.23Zm.73-2.81h1.56a2.61,2.61,0,0,0,.77-.09.74.74,0,0,0,.42-.3.76.76,0,0,0,.15-.45.73.73,0,0,0-.28-.59A1.42,1.42,0,0,0,80,34H78.25v1.66Zm6.2.37a2.47,2.47,0,0,1,2.63-2.66,2.79,2.79,0,0,1,1.36.33,2.23,2.23,0,0,1,.93.92A2.86,2.86,0,0,1,89.69,36a2.77,2.77,0,0,1-.33,1.36,2.22,2.22,0,0,1-1,.91,2.86,2.86,0,0,1-1.33.31,2.77,2.77,0,0,1-1.38-.34,2.23,2.23,0,0,1-.92-.93A2.64,2.64,0,0,1,84.45,36Zm.75,0a1.9,1.9,0,0,0,.53,1.42,2,2,0,0,0,2.68,0A2,2,0,0,0,88.94,36a2.38,2.38,0,0,0-.22-1.07,1.62,1.62,0,0,0-.66-.71,1.91,1.91,0,0,0-1-.25,2,2,0,0,0-1.32.48A2.06,2.06,0,0,0,85.2,36Zm7,2.43v-5h2.06a2.83,2.83,0,0,1,1,.15,1.26,1.26,0,0,1,.59.47,1.17,1.17,0,0,1,.21.66,1,1,0,0,1-.19.61,1.28,1.28,0,0,1-.57.46,1.44,1.44,0,0,1,.76.45,1.16,1.16,0,0,1,.27.76,1.4,1.4,0,0,1-.56,1.13,1.84,1.84,0,0,1-.6.25,4.44,4.44,0,0,1-.89.08ZM93,35.55h1.19a2.79,2.79,0,0,0,.69-.06.74.74,0,0,0,.41-.25.65.65,0,0,0,.14-.44.74.74,0,0,0-.13-.44.59.59,0,0,0-.37-.26,3.22,3.22,0,0,0-.83-.07H93v1.52Zm0,2.32h1.36l.5,0a1.38,1.38,0,0,0,.42-.14.81.81,0,0,0,.27-.28.77.77,0,0,0,.11-.43.78.78,0,0,0-.16-.49.89.89,0,0,0-.43-.29,3.23,3.23,0,0,0-.8-.08H93v1.73Zm6.06.59v-5h4V34H99.75v1.54h3v.59h-3v1.71h3.36v.59Zm6.75,0v-5h2.42a3.6,3.6,0,0,1,1.12.13,1.18,1.18,0,0,1,.6.48,1.29,1.29,0,0,1,.23.76,1.19,1.19,0,0,1-.38.9,1.94,1.94,0,0,1-1.16.46,2.36,2.36,0,0,1,.44.25,3.6,3.6,0,0,1,.6.67l.94,1.37h-.9L109,37.41a8.62,8.62,0,0,0-.52-.69,1.33,1.33,0,0,0-.37-.33,1,1,0,0,0-.33-.14l-.4,0h-.84v2.23Zm.72-2.81h1.56a2.57,2.57,0,0,0,.77-.09.8.8,0,0,0,.43-.3.82.82,0,0,0,.14-.45.73.73,0,0,0-.28-.59,1.42,1.42,0,0,0-.89-.23h-1.73v1.66Zm7.68,2.81V34h-1.8v-.59h4.33V34h-1.8v4.43Zm6.47,0V36.33l-2.12-2.89h.88L120.48,35c.2.28.39.56.56.84.17-.26.37-.55.6-.88l1.07-1.48h.84l-2.19,2.89v2.13ZM127.47,37v-.62h2.08V37Zm7.92,1.51V34h-1.8v-.59h4.33V34h-1.8v4.43Zm4.94,0v-5h2.42a3.6,3.6,0,0,1,1.12.13,1.24,1.24,0,0,1,.61.48,1.35,1.35,0,0,1,.22.76,1.22,1.22,0,0,1-.37.9,2,2,0,0,1-1.17.46,2.36,2.36,0,0,1,.44.25,3.6,3.6,0,0,1,.6.67l1,1.37h-.91l-.72-1.05a8.33,8.33,0,0,0-.53-.69,1.47,1.47,0,0,0-.36-.33,1.17,1.17,0,0,0-.33-.14l-.41,0h-.84v2.23Zm.72-2.81h1.56a2.57,2.57,0,0,0,.77-.09.8.8,0,0,0,.43-.3.75.75,0,0,0,.14-.45.73.73,0,0,0-.28-.59,1.38,1.38,0,0,0-.88-.23h-1.74v1.66Zm5.83,2.81,2.1-5h.79l2.23,5h-.82l-.63-1.52h-2.31l-.59,1.52Zm1.57-2.06h1.87L149.75,35q-.25-.65-.39-1a6.32,6.32,0,0,1-.31,1l-.6,1.48Zm5.77,2.06v-5h1.89a4.81,4.81,0,0,1,1,.07,2.07,2.07,0,0,1,.81.36,2,2,0,0,1,.64.86,3,3,0,0,1,.22,1.19,3.22,3.22,0,0,1-.15,1,2.38,2.38,0,0,1-.37.73,1.91,1.91,0,0,1-.5.45,2,2,0,0,1-.65.25,3.91,3.91,0,0,1-.88.09Zm.73-.59h1.16a3.09,3.09,0,0,0,.85-.09,1.2,1.2,0,0,0,.49-.26,1.54,1.54,0,0,0,.41-.64,3.06,3.06,0,0,0,.14-1,2.17,2.17,0,0,0-.28-1.21,1.44,1.44,0,0,0-.69-.57,3,3,0,0,0-.93-.1H155v3.84Zm6.56.59v-5h.72v5Zm3.63,0v-5h.75l2.87,3.94V33.44h.7v5h-.75l-2.87-3.94v3.94Zm9.74-2V35.9h2.32v1.86a4.37,4.37,0,0,1-1.1.59,3.59,3.59,0,0,1-1.17.19,3.37,3.37,0,0,1-1.47-.31,2.21,2.21,0,0,1-1-.92,2.72,2.72,0,0,1-.34-1.34,2.8,2.8,0,0,1,.34-1.36,2.1,2.1,0,0,1,1-1,3.31,3.31,0,0,1,1.44-.3,3.06,3.06,0,0,1,1.08.17,1.78,1.78,0,0,1,.75.49,2.11,2.11,0,0,1,.41.82l-.65.17a1.53,1.53,0,0,0-.31-.6,1.11,1.11,0,0,0-.52-.35,2,2,0,0,0-.75-.14,2.46,2.46,0,0,0-.86.14,1.61,1.61,0,0,0-.58.37,1.64,1.64,0,0,0-.35.49,2.48,2.48,0,0,0-.21,1,2.35,2.35,0,0,0,.25,1.12,1.56,1.56,0,0,0,.74.67,2.37,2.37,0,0,0,1,.22,2.66,2.66,0,0,0,.92-.16,2.36,2.36,0,0,0,.68-.36v-.94Z" transform="translate(-6.03 -5.33)"/><path class="cls-1" d="M24.08,43.24l-.15,0c-.49,0-1-.08-1.46-.15l-.27,0h0a19.19,19.19,0,0,1-10.54-5.32,18.79,18.79,0,0,1,0-26.82A19.19,19.19,0,0,1,22.2,5.57h0l.48-.06h0l.45,0h.05l.27,0h.06l.38,0,.16,0v17H22.2v-15a17.42,17.42,0,0,0-9.31,4.79c-.21.2-.41.41-.61.62a13,13,0,0,0-1.19,1.46,17.1,17.1,0,0,0-.38,19.71,15.22,15.22,0,0,0,2.76,3.17h0a17.43,17.43,0,0,0,8.73,4.24V25.52h1.88V43.24ZM13.16,12.4a9,9,0,0,0-2.06,2.53v18.8a8.65,8.65,0,0,0,2.06,2.47V24.86c3.64,0,7.28,0,10.92,0V23.05H13.16V12.4Zm11.6-7.06h.47a19.26,19.26,0,0,1,13.58,5.56,18.81,18.81,0,0,1,0,26.82,19.3,19.3,0,0,1-12.46,5.53h0l-1.41,0h-.17V25.52h1.88v16A17.47,17.47,0,0,0,37,37l0,0a15,15,0,0,0,2.76-3.18v-.06A17.12,17.12,0,0,0,37.58,12.1a17.5,17.5,0,0,0-12.35-5h-.47V5.34ZM37.48,36.1a8.21,8.21,0,0,0,1.33-1.46L29.6,25.52H26.79L37.48,36.1Zm-13.4-13v1.78h6a12.83,12.83,0,0,0,5.45-1.39,6.69,6.69,0,0,0,2-10.64,7.11,7.11,0,0,0-5.73-2.4H24.76v12h1.88V12.21h5.18a5.08,5.08,0,0,1,4.06,1.7c2.41,2.78,1.67,6.29-1.55,8a11.08,11.08,0,0,1-5,1.1H24.08Z" transform="translate(-6.03 -5.33)"/></svg>