<svg id="Layer_1" data-name="Layer 1" xmlns="http://www.w3.org/2000/svg" xmlns:xlink="http://www.w3.org/1999/xlink" viewBox="0 0 132.74 132.73"><defs><style>.cls-1{fill-rule:evenodd;fill:url(#linear-gradient);}</style><linearGradient id="linear-gradient" x1="5.52" y1="77.95" x2="138.26" y2="77.95" gradientUnits="userSpaceOnUse"><stop offset="0" stop-color="#b44d4d"/><stop offset="1" stop-color="#5b3978"/></linearGradient></defs><title>service-logo</title><path class="cls-1" d="M67.9,144.23l-.51-.06c-1.7-.11-3.38-.29-5-.53l-1-.1v0a66.38,66.38,0,0,1,0-131.09v0l1.67-.23h.11c.51-.07,1-.13,1.54-.18h.19l.94-.1h.2c.43,0,.86-.08,1.29-.1l.56-.05V71.17H61.4V18.5A60.24,60.24,0,0,0,29.2,35.27c-.71.71-1.4,1.44-2.07,2.18A41.13,41.13,0,0,0,23,42.54a60.39,60.39,0,0,0-1.31,69c2.64,4.4,5.66,7.39,9.52,11.08v0A60.2,60.2,0,0,0,61.4,137.41V82.24h6.5v62ZM30.17,36.33A30.86,30.86,0,0,0,23,45.18v65.76a30.39,30.39,0,0,0,7.13,8.67V79.92c12.57,0,25.14-.1,37.73-.1V73.59H30.17V36.33ZM70.26,11.6l1.63,0a66.37,66.37,0,0,1,3.88,132.63h0l-4.89.1h-.58V82.24h6.49v55.88a60,60,0,0,0,35.9-15.65l.06.11c3.87-3.7,6.89-6.7,9.54-11.12v-.21A60.37,60.37,0,0,0,71.89,17.59l-1.63,0v-6Zm44,107.63a27.22,27.22,0,0,0,4.61-5.09L87,82.24H77.27l37,37ZM67.9,73.59v6.23H88.68c6.51-.37,13.13-1.71,18.83-4.89,14.46-8.05,17.5-24.53,7-37.23-5-6.07-12.06-8.38-19.8-8.38H70.26V71.17h6.49V35.65H94.68c5.53,0,10.38,1.68,14,5.94,8.32,9.72,5.75,22-5.38,28.12-5.17,2.84-11.48,3.75-17.3,3.87H67.9Z" transform="translate(-5.52 -11.58)"/></svg>